<mxfile host="app.diagrams.net" modified="2020-11-12T03:42:48.609Z" agent="5.0 (Windows NT 10.0; Win64; x64) AppleWebKit/537.36 (KHTML, like Gecko) Chrome/86.0.4240.183 Safari/537.36" etag="JaO8XkpvC28ZhyQ7EuKB" version="13.9.6" type="github">
  <diagram id="oiIysxo4HwHov5_4s5s_" name="Page-1">
    <mxGraphModel dx="744" dy="341" grid="1" gridSize="10" guides="1" tooltips="1" connect="1" arrows="1" fold="1" page="1" pageScale="1" pageWidth="850" pageHeight="1100" math="0" shadow="0">
      <root>
        <mxCell id="0" />
        <mxCell id="1" parent="0" />
        <mxCell id="R9yToSz16URSt_BN8b0W-1" value="" style="dashed=0;outlineConnect=0;html=1;align=center;labelPosition=center;verticalLabelPosition=bottom;verticalAlign=top;shape=mxgraph.weblogos.github" vertex="1" parent="1">
          <mxGeometry x="118.25" y="160" width="51.75" height="50" as="geometry" />
        </mxCell>
        <mxCell id="R9yToSz16URSt_BN8b0W-3" value="" style="shape=image;verticalLabelPosition=bottom;labelBackgroundColor=#ffffff;verticalAlign=top;aspect=fixed;imageAspect=0;image=data:image/png,iVBORw0KGgoAAAANSUhEUgAAAR0AAACxCAMAAADOHZloAAAAflBMVEX///9hpjpfpTdToCFcpDJvrU3s8+lXoipVoSZaoy5epTXl7+BRnx1YoiyWwoFXoijE27j4+/eLu3Lf7Nmvz5+bxIZ0sFWQvnvW5c+Ct2fz+PHB2rWGuWy71q6106fH3b18tF+kyZJpqkXR48hsrEmpzJigx41ImwR3sVrO4cQOLappAAAO/klEQVR4nO1d54KyOhCVJEISYLGLiA37+7/gJTMJgiuuCt/VZTm/tlCSQ6ZCZjqdFi1atGjRosVT6Lthb7FcLher0O2/ezAfheFykHAaOL4Qwnc45cl04b57UJ+B7RejghErD8J8Ksfhu4f2bth7hzPrJgjjbBS9e4BvhDv1xG1qNEHC+7LfPcg3IZp6JcsmB+Yd/qSOXl6JFJFM+KleZrKog4Q/f/dQ/3fYEyfHgPS5Zw3Go8VisR8PLI8LmfsvX/8x9dPzLtMnDp8thvn/9ofLNXUuRzC6fddA34EDzc183bulWaL5iV5Ez9v/72N8G2aZVDHvq9ztGw4uK4xP/8fxvRUnY8aJN7hvsN0ZNSran/1Po3szJkZghPWzN7xl2dHrfz+09+NkpkvHDx0/NTpKxP94ZB+Aqa+liq4ePGNhpMs5/NORfQCWXHs47PEgPAw0PbThfmHoaXKsZ+InN6On2XkNHSUQ9pz3a+ghyT8a10dgihqZ8Gcj76FWzf7mn4zrI2Dkij6f11pperzmytYO5SNYvnDuAW0dWdc9qE/BHO2VXL90dhejisYGpBYuHfpaPsJF2ZLdmkf1Iehh7Om/IlcKG9HkxdOFpUPkyxcIUPM0MhzVRtnpvXyFJSpmr4mJ+DH4OsSqcAlcPKKJmTA9tVe1jgJqnkoEfyi2vIrBQmizRYc/H/rLsAHBktVyNBNZef19JtBPrqCTFZaimf5ypIWimr3RosVrGtTHIOS1ZCBkM9M8C/BV2FfFy8yAHufRpOtvwQGUsr+oeJk9KB4xqmVMn4MYH3rVGAljNfbY24zfAwyyKisMVF+yaaEWZi941Y8p0GiRpmUx0NgEVb9Usmkjk+81sRPxRkZayI7TsnMTpFbJ2tUyps9BQmoIJDKtPKllTJ+DCdqsqhZ9G9QQ6X8eBuArO+eKl5ljQNK0jzEwvVM5BNCXaVqCR4cAg4qXOclaluCnYViPKfbryBJ9Hvq0jswMhlmWqGlQn4NTHSlhTGBUls/PwwgmJqt5Kug1Vc4SfR6GNYiWvkYTX4ZiDoNV+XgLPx1rXP5CAXWGxV8PtSL8dOzljzg+GTbOrYJDiG/iLa+R+5Fm+nXLq4tH08uauZ8kRJ36csocQ7XmvczSOOnF89pHAlv9ZVzTMu4GevG8lhXu6y3rTV06qeZB2RCvaA59bkO1joJtvuZ+3ibv9XbAl3X6L8BIz9F7NgUxN7w2epfNRG/0fHIvwFmTw5qqkhGR3p713FfHZpMEEQ2WK4WtXgWW97iMLLNzmvfB4BWWZpsnfTR1nm0MbbbSQRwCPVl/8kgmwk3M/mzatK92bmJq6JEPzHeTbUinDd64lsfYqGbLt+5/4zaXWX2ev0JO6tplZTAIT0q/0e0vLCcrNuM1MalTglUmLxZxxM0CX9uvwL8cFDRz21EJLrpW+XicDRbDS04rCpexyNcucroNzCTfxdjLl2hiPudst47jeL1jvFicSP6l8jIGw11QLGFlESJTXP+RTxqbs7iLufSvqPgG4vxg1ZqMhcXlHW4YTf6Ae3wH55nn3yZIOt7gT1mqm4jmsceLpTxJqqTp4GY5sL+I4XK6E5xyBcpZ92vR+Gj8WUT2MAzDod3Il3ktWrRo0aJFixYtWrRo0aJFixa/HaukWyOatqe4x0l9kOzd06kZPedmav1FkHdPp2a07NxDy849tOzcw/xIa4T37unUjL5dK949nRYtWrRo0aJFixYtWrRo0aJFixYtWrRo0eIXYTU+ZBtJouWgu5t8VWsQ1CTElDGzyXrh+Uy9O3e8d27X6rEkSayx2vA7KaCe6oeno5fi+NCmKyyagqXzFqZGSPWa+VXQcwgh4itlxyt88cBqqaKuSyneL43sLnFrOhalhGZbeB7xHfZMFUa7V/fufniZq7oUubTwWraekrT6VXF53S57GTN6RHa+gJ1AMQnNk4i1OG/8h281TqhXd3HzMnbq6bGoazFaTtkBeyqzinBQpYd4SpKAqKcKxQ2PjNTfJumKHRJoPFFHqBx9oz14WU0rqNNpqm5vPN/B8k5rxepTXzNBierai6EW2SHdTl+jjouvzDcYpfX8gZ2sDZC76OGPip3nKhQiO3Vv1f7GTiVc7e6Ms23VZWXHQRN/r6Cr6ne+wE7t7dnuseNCOezVaKTlwj0vFucrZRCFq9Uq1KysjoVdwX01Ygb9DnKFPKOV+nm43M8jzY5jp2sVLtF3V6nJ6sOSStm5LOIonI9G86J8RqvNdGzGFjqwdvLL3l1dD3eo1laUXkn9NXJ/3sJcxk40nwplTEIWCB+K+s8t6vipYpA51bfYUR44AafJeN7bJ4EslP8HwRLQ+NEo+XDfpTROF4cnxDFMHN0HKAj4sdOfEa7/KTMdeFR6aH6i3BfC5/wiofaAOowxwUX6DEeeLmqpzkD3YUlwuJaueG4v4vQmdupVOcLZxYmTDjq7WEwdxzl+9zvK2LGPTJVF3qqiJ6pqfdTlems98S39QFySFRIizHeEOjSvYJR8yBjqcxsxmakiIUG/K0DrJpfd+qlm6qv6PMqTmF7qzBDWiQ7UySTUt/TKWHnmIMLXuqUo/goPyE7M0IiTwLLcHqUSPShF52zhzlkPBuhdQG5YgVLJgjnBLJRpjSysH479vNHWulR3977MkTi5xdOHpbMsmGeYBulKvGmiixlIKT2301elwa7YEaPQyxXtyUozrrzCn0b60REpHbVK7UBehiulnTGAE/KwZnhWSP/sWLctxzU7/QjQ78wIPAhLMpHO+AQDppMTFPggUj3BHfxId+sEx5bIoJt3OECw+BDb0OiuCdiwh6QPiqW2exDDM5Sz2SwlJWNnoOcqfP/oAseWTKUKVwNUv9c9o7gUPHXr+535bA3DPcWztfp/gkObTOAByp153DghP8ZS+lnT9emVaixhJ70i4LjQniuh6/3XpjOHkmYiPT+CspwiDczOHHhS1wzhWHZleuCeQl9Zd01wdecMMt6ArH3lbFbGTspPzt9J7y299WLormB+YJdiBisjvfd2h572MG+zoLIqSWwlYeocXz00LPRMvMF+MNdtGEx1WaDqlom87Sunaw7WHmFIKIwLfHxdljONFcFV0REU6t+iew0WC9o6wdNHIcfevE62iKd32DFeQNeLUSx7ahEqjw/L7uqHjTkOtOg63wFD5PBvnFbQ0X47UKYA09Ojh07cN/3sUnagUUaA9hJbOuhnCU5MegDcTbPfzy0PAxBmEG2oPo5CDuzISwz3CDtD48XAwlMiCmOT6/zd8uycg9xamJgHC6PIepHDdHUX3HFp3HLNjgRwzQ7yjz8bKYVf0kl8Y+eqm880uycoHjw9AgbGxYN+YCcDaBvFDujE4sPOswMtbs1N8JeDZufyVS+038YHDmJ60w++Zme2VjitCuwMzB0UVijUWrIwNwXr5GrtXIQZdSg8NpDL59mJzsvNeIqKLGUHDE8xLZJnB1WjJg+spKoLf8UOzA+EE1TW7UYwpRY9z84u/6zQ7ASdFWhlC7Sy/P4wt7hKItu2o26mTl9i5zxJPbjU8zNdjzG4LUa2eXZA/ZqYq6cf5jU7buakboRV1q/iIXZIfvLYsIkbE8nlToAFJsX64mjzGJhAbNcyeJGdGc1XwUpnjWuRFyxwnh3MomltdS5hB6wWrG0w87crXFdgxxXop2mPzitGQd+3SNDX2JnBXYhwHPEUO70f2IEJpt4TTLwkfn1CsrTB3sK8Vc6uv0/0xAnju6Iztc2KvmZQhTmfZwezzcza90JQIemso0fYMZKFJqH7nR2YcCqnS3VASU/Th9gpaGUUZDiwd1KREffo7us6ghvryEPD0nd5nh1wILAbJnp86Z1+0Dvd/FJHrTz4zg488/TC6gZlqd2H2BkZva8AfhScAUGoiG/u7gBy5E4Dw03nFXZy6yQMtAzA9Iuprjw747xFh1/Uuv/GDsxKgA4vy10+xA70EyF6fxRkNdU4MM663eMUBitP5tc+10/7aXbQPqETB2ZQrR30Yabfbqi1x8rJTQW0gpr9N3ZcCNeVXiJlW78eYgfNExJsw0RT+6RbFpI4nk6nm2WR/bFxTTo5StnmNjs6k3B77aAUgSMbGu8bu78EeNryK2PHOC30cg6Gm7Jzgx1YgkSFr6Xdzx5jZ4G+TXq/PrhavtLQ2ipJqVwRQQu1SUHT5Jxz/QpGpwsv7ACLWkZus4MtDdU66UMcDgeApJIkHd0w5nRl2DHu/B41cRaFBlk8U2AHQwDrTgsiGPaP7HQm4G3z7glKuGIKcHApog2LKFfzF8eaiyzQE6fuNTvY9tD/Gk0HJeyg3yRmi42uMKzeWmALBsIZUxkVbmsxsdh6f1D5MQtUOZ+cYIj45vI7Oya0LM9gIzuHn9iJCNogGKDkuKYPgnLupNDjvrRiOeSNHMBCO3LNjqubhwkmS9gZ4hFSMP2grWO6JA95h4Grc7pSH6YWgu2Qy3AZiW6zY3KT5a/BwAKpf2MW5lIvYOQXllw0yTKnTpJZqcgNz+fzajnALtRZoAWCxfPfB4C7Lrt9dZV8q7G9qUft2fi/gZkJEeYIw4IkKq/jwNkbzzjQzIM/DKnOKDpK2+Uyp3yCQcINdka+vnUZOzMTArlU1QvIsaNesOcFct6l6UIJaKJ1LWzVzBICmMPRv4ZwrUKMHUJZAzoM1Gv7fCO2VaKy45yeUnZk+j9kR6Tnmxeocz9gTKaaLVUkO19oIzmM0+H4DqexHqMdewGk2dGsLxIvSIfrdU14qa6Jb1ozYC7uYlqvkQuff4a97fW2hmdb7Rc+Zsvjkq94Gu5qMQ/vjaC/2gziwR6s4vgi+1E4n8/D3HSj7XyxvayDwnBLoNzZ8neEkE5kr/RlhxTTxZsfvM7OGwH23it77xuL+3J3B5jHN44CZg9/XRewyZ0owp4gOS+9fcbcbjAepn6hO0KtvK4w0HdgU7Q8RUTwzsp7sT0y9tRjnDoex1TGL+vlZENvnfJ2khEjjvXqlCKZa42hTOfv6qvSG6AL4JXrSldW6KsdneilMDtx/Gfb8r0XUwyEXpWcBxBOJeVBEHDqz35blwOVQiOC/tvGFfZwu92Gv7GAx4FStmnLyZcgWv4uI9KiRYsWLVp8w3/o19m6VXOqgQAAAABJRU5ErkJggg==;strokeWidth=1;imageBorder=#000000;" vertex="1" parent="1">
          <mxGeometry x="336.65999999999997" y="160" width="64.41" height="40" as="geometry" />
        </mxCell>
        <mxCell id="R9yToSz16URSt_BN8b0W-4" value="Secret Scan&lt;br&gt;Code Scan" style="rounded=1;whiteSpace=wrap;html=1;" vertex="1" parent="1">
          <mxGeometry x="97" y="270" width="102" height="50" as="geometry" />
        </mxCell>
        <mxCell id="R9yToSz16URSt_BN8b0W-9" style="edgeStyle=orthogonalEdgeStyle;rounded=0;orthogonalLoop=1;jettySize=auto;html=1;" edge="1" parent="1" source="R9yToSz16URSt_BN8b0W-5">
          <mxGeometry relative="1" as="geometry">
            <mxPoint x="369" y="160" as="targetPoint" />
          </mxGeometry>
        </mxCell>
        <mxCell id="R9yToSz16URSt_BN8b0W-5" value="" style="aspect=fixed;perimeter=ellipsePerimeter;html=1;align=center;shadow=0;dashed=0;spacingTop=3;image;image=img/lib/active_directory/internet_globe.svg;" vertex="1" parent="1">
          <mxGeometry x="343.86" y="50" width="50" height="50" as="geometry" />
        </mxCell>
        <mxCell id="R9yToSz16URSt_BN8b0W-10" style="edgeStyle=orthogonalEdgeStyle;rounded=0;orthogonalLoop=1;jettySize=auto;html=1;" edge="1" parent="1" source="R9yToSz16URSt_BN8b0W-6">
          <mxGeometry relative="1" as="geometry">
            <mxPoint x="370" y="122.5" as="targetPoint" />
          </mxGeometry>
        </mxCell>
        <mxCell id="R9yToSz16URSt_BN8b0W-6" value="" style="shape=image;verticalLabelPosition=bottom;labelBackgroundColor=#ffffff;verticalAlign=top;aspect=fixed;imageAspect=0;image=data:image/png,iVBORw0KGgoAAAANSUhEUgAAAOAAAADgCAMAAAAt85rTAAAAkFBMVEX///8cqCoXpyYAogAzsD7j8uMApRoAow0OpiCr2q4ApBSi16fz+vTn9ukUpySW0JprwHJItE+337rt9+76/fqDyYie1aOy3bbE5ce74b5ivWna79xwwHZcu2TG5snv+PDP6tJ8xoFQt1iQzpRBsko4sELU69YqrDaJy45Wul9+yIVMtlWSz5d3xX1mvWxuwXWyWPp7AAAMBklEQVR4nO2da2PiKhCGDSggxtjWeImuGu92q/b//7sTZiB3ezFW0z08X3abRGXCDAME3jQaFovFYrFYLBaLxWKxWCwWi8VisVgsFovFYrFYLBbLXVm0duPxOGz1H12QH8Cf914dxgEqyfMh+Jes9EczyplHHAPxmKTN4/TRBbsN0xOXnlOEMLppu48uXWXCFRUl1iGeZIPuo0tYici8bOURQrJ/M778vdHonlPmeaqJEc1t04n+ZalaFfzw6IJeSTtxTk/KzXHc0if6YedMuIjrkongoQW9jv6KJ3W0GhX8MBw4PK5fOvt1fhrEXhhFWevCNUmECja6b/mq8peaktPBB5Wzm8Um0qf7la4y7rPUjeSnvrd75joW2f5CRdePKRGmzOPPr34hTLdE/Je0NXNdJ4Se/K9c756o+cDwp8t2C16oSQ1fqD5kLnSV0+VPluw2tLV9bFuMPj8cDYftsNgBdU1Oked7lLEKHW0fLzaKwSvlkjHJ6XMxJ6y1m8rXe5Tyeox99Jg/M98ned3j5CV/PtCRy2ptofZPQtv5M39pppdNimlvqvtubHafsl6DaV9ooXmZSScH2+Sb2O4emxpZ25Q/1/XHw/yZibGPCBH3zjb5q9wmWsgHdynut5nqlrBo3xDPECY356dnpq2VBTv8LVpIO3cp8DfpYwwRGhbOYM16rAeZw+142o7CpIzbxPql8zsU+LuYshXT+wns8bbx7IT7hkeKDebCwW+R9Rs+nbFHSYspzgWXJE46v2/BDlrsXncl+IFXCNBHo8OMl/QmR2Bg1nNb4LWsV7w6pBcC9LHoBkaW9SXflT96z9mDT3BwVXK5zqU1C0N0OVFW4MZGnZO51D/GO1I23Fhql/7SUORODEvCzOA7pCR3dKGeeOnEL9wRh51uX85r8XXclA5Y/fL2BD5CSw3U/s5rNCe8xhpslp3zsbS77NH+BzX4VrsaNEmQlY7mNspFZS59zKGWvLI4G+Dd2tcpBhs7ejFL6AYzl9Qh+XtvJZebVjT8gWJWoIdxQ0vCsC2L/bIF5sF18eqxvlWFAeWjeRWXbnyfFwMUw6zYGY1GJNCTEfUb9vr43IjIYqHBRx3xFrco/gT6dfnkHxGiI3j1CkCkZcZEhQ4m9ssc4Yyw2EET+60yzF+p/ZOwGmWIhLh0BQsPOAIkkswO67MTz2XnJ2Ze6KURVz0wMzKs4KVvevI6GhOy5LGZQ7MWxjNWtZ3hHpo5i3xH2d8wp4zM4Mo8sCkZcdWGtSlj3vn8M82aJvLG+GZeqs72RdFmLCyM9EZCxr5JmPzLs7eiqxuemtvXaBwvzmz7nSaVLEJSp+cmU4xg4ZjhVAWpb/wZhubZRLPY1HeD3uFwHGEblLbQuLZXzBz1Y2QKywvT81liC0czbgKzlvkvz9wsbKJPHy9kMhZq93Tk2y9Z+NQybSQjH0fUS6ZppbUaAH6IvzLP6PnqwwfvKQtLHtjUGfO4z/Ho6aM53NhC4fyytYdzz6yTEfT0Qdm1hXxSw+HDx7iT2P0EfWsv8ud93aAoC716Pm35jIDFHVBPyrdhGPvqYtc+i3f9xwtl+1/mngZ/mVorqlYbsubbbPbWVP8ThJjLRu8ffUm9ac2y60WJF6Gbn+JjxF/JbnZpxS/7rctE80yXF9Zs7x9dspvhj16zq+7Vs3pJa/iQ83r88WEjOJcA52K7HP2KfvW38Lu7YNRuj4Jd99dldYvFYrFYLBaLxWKx/G/p7Js3ZF+/GamhJDeE1WxFc8SwfB3FlQhr4N2xBv52A3v0ptRvr+uidVP+pVlvi8VisVgsFovFYrFYLBaL5R+jrei4jcauneWTnVefEGa/xO3g71Qv77eBNay0q7bNyTS02lL5Pn6b2Uh/gD/pI56ZwUJkpQvSyU7Ns4p3GwVaBIpfuLCH5DEKMpcMLJdW+QZ7WMKNKiwD+O7P9hv+DDkDReyiVTer4K57MYn+u0BlkjLljp8na6B4D140lfcyzmA/hbpRWIF09/lnfoCsgWUyWteC0hBRFaKYh3jQBp/bGjhMPzTSFdfS/z5oe+tFA/1dbxVFjT9wKIejbmeyF2RzyijjhYfX5n7/+jfo+g1/vqKT1Dkf5fFW2GgZqR13fmhG6aL7xCgbm+9wpHReQTiwNR4d3p+T3+gdIw4Vbs4lAzuCMo/3u3tGUM5oKKVSqfAEb4bmoqAZXUQI8YSk+63gXralHGHjAinC7PM5qZ1p+8ZYKcWr+HR7e4qbZjzGO0ovQzKRyLe1qNqYX2WT0CUDQReNdfae9q4Jj3fuxNsdD2nRVC03w9M7JbeJFrzJOmv4mReORrsHyVLfQduNBeRPz3wDPDivlJNzBsaaTaiqBcoiSt/uD+ZtzrFpBLkGFCfxJJdmUzbjPFOWndkkmig+BfBFEJXs2Ai0/orek0e435h56Rb3Gf4qbC+92kDy/Ac4dxt6n7XgLKowTGpyEI6fUMCpqzQb1UfZ6mUX4MF9uxPkguVdm87jrDo1sjucqYMqlwjurCZb7AuMUSmRacWnLndKRS6vNlApvCqi6MCeCB+0Frs+/oHqfn8hX561ZqPAVuWgDuaVxxqxJmlqTQWqWRHW6S/mYIFHz6E6sRToQaB1SbZ4NehhyUo9oPKuWmQgqKUxDB3QvtWqVAts9BdYIl01PtzpooQTXpTy/IaLNRjvvj9sdOXuIOijNgB9FPMN/F9WSjAXDVTeb9q+gUhVA4RFVFtnddBkN6hiUehM95l2yLiMUEGppB9/pGsMBM9Ab4G7IappHuf7ovjqJJ41MOWhibUgDcd1VeCHCwY+meYnVnlwWWmZ3cXUGAhDDw+0ql8kxuXtDBSDLqximfppA33ppH6ox7AAEB/iLxzryFIXDeOt9nHfvWjgbv3qUEp57Mvgl1DnykmIU8m+yz2ZlIHgPfGuarjQ2+gupjwH4Rjlf3ghXSV5MG4J8wZOnylLdgCDgXG9QWTrW3gPA3cpA8lGLe4Cv5Q6ORZ1tdvYy0aRvHGpgePsNnVI6eCjyi7obORlL+9kILjjMLXDnPBNvrHzIVGKJbicCeesgX3UgWJcOnsnjvOJwOuX4gZ7ub9iYEkMYv5zT6rsnnpDwb7YnVpi7u6j3J/slBh4wC5Np69HV2gg+GgUtcS5wQDuKwY2nLSCKLSioDs53kBDOukN2yXjf+yziKj9fIUqxFSRNXCTNM+QB/E3XEwUEOQlStY/YOAfsOmYnIApmzbEj3dJbXmFsdc3jSku084Y6DNzScZA8FHxrjRYvW1F+75mYJDqqLjx8BXq1Xtb9PuLkr5GgBW4TGyFnJk1EK6hfmIg5lrw0eZRxI790wY2RCLEvMa5m6ioOALwOCxwdd6z+Ri1m3XtTLG9nRUMxCgFHxinOtlwEWmSigOJbxiIUmOs02qteVzuZrqFJ4Ju0vMVa5a4ZTwBNc/HILg7UQptAdxD84PKR9Ud8iq/fMPHuul/YmADFFEJoxwdFDxpTJlIC1iIlAy3foGBkbPAKlQBlTWwh8Nb+WwkO9kZ/DXQg7XqU6kYUdE48xMD/eRVbskLX1q9p83eU2+xwVSfEpaeiHQFYqcr+p1RzkBXa3VCwkxJBbtasJRVnguHHE5YQ2VtxhhNVIc36gU8qX7gkTKi3p/oSVaY9PbDp+zM2Vh9WfR1cQRN9QHfVf/hsZz1lOtBDOGTgCYK+JNbTTUmo9Zw3ev1jklL0ekpUpcuhm+O5+1n7dQFx9Cche5KLAKEHz6mRsBtOLIO/WP2hLv0KI96e/u2yjux9lp49OLmpxJbgp7zRdzEZWC+K3nlQJtdWyC/NQ70uxmnSVJQWaPqQCLiBG2H9/mFRUAKPXk7GMy+3FDGSfV+qosmnTCurxpRwoxZPATUYuI3m70GvbnK3bQtluq67izqbnviMBqPehvzHOJGQP9cVE6CqjvsXa2pqDWbmZQSh6xE3kjlqDuArFi5AtVsGX2+/jngIPs2MMHCygVStLYUk/MtHngHldrhF8docSkRrvOttiPhC0X4zfy9CvP1zIk623J7at9ut1U0uvLk73jZ5JWs+KbzT+t6uZXHSBaLxWKxWCwWi8VisVgsFovFYrFYLBaLxWKxWCyW/xv/AS8trSUEV/zLAAAAAElFTkSuQmCC;imageBorder=#000000;" vertex="1" parent="1">
          <mxGeometry x="425.21" y="100" width="45" height="45" as="geometry" />
        </mxCell>
      </root>
    </mxGraphModel>
  </diagram>
</mxfile>
